# xmcd
#
# Track frame offsets: 
#        150
#        14228
#        28194
#        48005
#        67263
#        85349
#        103027
#        119633
#        137543
#        157028
#
# Disc length: 2315 seconds
#
# Revision: 2
# Processed by: cddbd v1.5.2PL0 Copyright (c) Steve Scherf et al.
# Submitted via: ExactAudioCopy v0.99pb4
#
DISCID=8f09090a
DTITLE=Southside Johnny And The Asbury Jukes - The Jukes
DYEAR=1900
DGENRE=
TTITLE0=All I Want Is Everything
TTITLE1=I'm So Anxious
TTITLE2=Paris
TTITLE3=Security
TTITLE4=Living In The Real World
TTITLE5=Your Reply 
TTITLE6=The Time
TTITLE7=I Remember Last Night
TTITLE8=Wait In Vain
TTITLE9=Vertigo
EXTD=
EXTT0=
EXTT1=
EXTT2=
EXTT3=
EXTT4=
EXTT5=
EXTT6=
EXTT7=
EXTT8=
EXTT9=
PLAYORDER=
